<svg xmlns="http://www.w3.org/2000/svg" xmlns:xlink="http://www.w3.org/1999/xlink" width="120" height="120" viewBox="0 0 120 120">
    <defs>
        <path id="a" d="M12.917 43.822c4.28 0 7.75-3.422 7.75-7.644 0-4.22-3.47-7.643-7.75-7.643-4.28 0-7.75 3.422-7.75 7.643 0 2.39 1.111 4.522 2.852 5.924a7.784 7.784 0 0 0 4.898 1.72z"/>
        <path id="b" d="M49.083 43.822c4.28 0 7.75-3.422 7.75-7.644 0-4.22-3.47-7.643-7.75-7.643-4.28 0-7.75 3.422-7.75 7.643 0 2.39 1.112 4.522 2.852 5.924a7.784 7.784 0 0 0 4.898 1.72z"/>
        <path id="c" d="M19.215 33.121h23.57c6.332 0 11.465 5.133 11.465 11.465v6.37a5.096 5.096 0 0 1-5.096 5.095H12.846a5.096 5.096 0 0 1-5.096-5.096v-6.369c0-6.332 5.133-11.465 11.465-11.465z"/>
        <rect id="d" width="62" height="28.025" y="51.975" rx="14.013"/>
    </defs>
    <g fill="none" fill-rule="evenodd">
        <rect width="120" height="120" fill="#263238" rx="60"/>
        <g transform="translate(29 20)">
            <use fill="#FFF" xlink:href="#a"/>
            <path stroke="#263238" stroke-width="1.5" d="M12.917 43.072c3.868 0 7-3.089 7-6.894 0-3.804-3.132-6.893-7-6.893-3.869 0-7 3.089-7 6.893 0 2.096.955 4.037 2.572 5.34 1.241.999 2.79 1.554 4.428 1.554z"/>
        </g>
        <g transform="translate(29 20)">
            <use fill="#FFF" xlink:href="#b"/>
            <path stroke="#263238" stroke-width="1.5" d="M49.083 43.072c3.869 0 7-3.089 7-6.894 0-3.804-3.131-6.893-7-6.893-3.868 0-7 3.089-7 6.893 0 2.096.955 4.037 2.573 5.34 1.24.999 2.79 1.554 4.427 1.554z"/>
        </g>
        <g transform="translate(29 20)">
            <use fill="#FFF" xlink:href="#c"/>
            <path stroke="#263238" stroke-width="1.5" d="M19.215 33.871c-5.918 0-10.715 4.797-10.715 10.715v6.37c0 2.4 1.946 4.345 4.346 4.345h36.308c2.4 0 4.346-1.946 4.346-4.346v-6.369c0-5.918-4.797-10.715-10.715-10.715h-23.57z"/>
        </g>
        <path fill="#FFF" fill-rule="nonzero" d="M67.808 32.734l-7.556 4.532-7.56-4.532L60.251 20l7.556 12.734zm-7.556 5.987l-7.56-4.532L60.251 45l7.561-10.81-7.561 4.53z"/>
        <path fill="#263238" d="M48.41 63.72c-.35 0-.698.141-.908.354-.279.212-.419.566-.419.92 0 .353.14.707.42.92.209.283.558.354.907.354.28 0 .628-.071.908-.354.209-.213.349-.567.349-.92 0-.354-.14-.708-.35-.92-.279-.213-.628-.354-.907-.354zM71.66 63.72c-.35 0-.698.141-.908.354-.279.212-.419.566-.419.92 0 .353.14.707.42.92.209.283.558.354.907.354.28 0 .628-.071.908-.354.209-.213.349-.567.349-.92 0-.354-.14-.708-.35-.92-.279-.213-.628-.354-.907-.354z"/>
        <g transform="translate(29 20)">
            <use fill="#FFF" xlink:href="#d"/>
            <rect width="60.5" height="26.525" x=".75" y="52.725" stroke="#263238" stroke-width="1.5" rx="13.263"/>
        </g>
        <path fill="#263238" d="M43.726 79.72c-1.047 0-2.094.424-2.723 1.061-.837.637-1.256 1.699-1.256 2.76 0 1.062.419 2.124 1.256 2.76.629.85 1.676 1.062 2.723 1.062.838 0 1.886-.212 2.723-1.062.629-.636 1.048-1.698 1.048-2.76 0-1.061-.42-2.123-1.048-2.76-.837-.637-1.885-1.061-2.723-1.061zM76.483 79.72c-1.047 0-2.095.424-2.723 1.061-.838.637-1.257 1.699-1.257 2.76 0 1.062.42 2.124 1.257 2.76.628.85 1.676 1.062 2.723 1.062.838 0 1.885-.212 2.723-1.062.628-.636 1.047-1.698 1.047-2.76 0-1.061-.419-2.123-1.047-2.76-.838-.637-1.885-1.061-2.723-1.061z"/>
    </g>
</svg>
