<svg xmlns="http://www.w3.org/2000/svg" width="120" height="117" viewBox="0 0 120 117">
    <path fill="#263238" fill-rule="evenodd" d="M60 0C26.8 0 0 26.8 0 60c0 26.4 17.2 48.8 41.2 56.8 3.2.4 4-1.2 4-2.8v-10.4c-16.8 3.6-20.4-8-20.4-8-2.8-6.8-6.8-8.8-6.8-8.8-5.6-3.6.4-3.6.4-3.6 6 .4 9.2 6 9.2 6 5.2 9.2 14 6.4 17.6 4.8.4-4 2-6.4 4-8C36 84.4 22 79.2 22 56.4c0-6.4 2.4-12 6-16-.8-1.6-2.8-7.6.4-16 0 0 5.2-1.6 16.4 6 4.8-1.2 10-2 15.2-2 5.2 0 10.4.8 15.2 2 11.6-7.6 16.4-6 16.4-6 3.2 8.4 1.2 14.4.4 16 4 4 6 9.6 6 16 0 23.2-14 28-27.2 29.6 2 2 4 5.6 4 11.2v16.4c0 1.6 1.2 3.6 4 2.8 24-8 40.8-30.4 40.8-56.8C120 26.8 93.2 0 60 0z"/>
</svg>
