<svg xmlns="http://www.w3.org/2000/svg" xmlns:xlink="http://www.w3.org/1999/xlink" width="110" height="120" viewBox="0 0 110 120">
    <defs>
        <linearGradient id="b" x1="50%" x2="50%" y1="0%" y2="100%">
            <stop offset="0%" stop-color="#EB2B4F"/>
            <stop offset="100%" stop-color="#B62A8B"/>
        </linearGradient>
        <path id="a" d="M35.607.909a2.63 2.63 0 0 1 1.86-.766c.674 0 1.348.256 1.862.769a2.61 2.61 0 0 1-.003 3.705L9.103 34.653h3.062L34.45 12.032a2.64 2.64 0 0 1 3.723-.036 2.611 2.611 0 0 1 .036 3.705L19.539 34.653h2.953L35.74 21.354a2.64 2.64 0 0 1 3.721-.014 2.611 2.611 0 0 1 .016 3.705l-9.572 9.608h22.336c1.056 0 2.01.628 2.423 1.595a2.61 2.61 0 0 1-.528 2.843L12.13 82.47a2.633 2.633 0 0 1-1.895.802 2.628 2.628 0 0 1-1.826-.734 2.61 2.61 0 0 1-.069-3.704L46.05 39.893h-3.083L12.67 70.05a2.63 2.63 0 0 1-1.86.767 2.63 2.63 0 0 1-1.862-.767 2.612 2.612 0 0 1 0-3.706l26.573-26.452h-3.03l-19.314 19.32a2.628 2.628 0 0 1-1.867.772 2.632 2.632 0 0 1-1.856-.762 2.612 2.612 0 0 1-.01-3.706l15.62-15.624H2.741a2.632 2.632 0 0 1-2.433-1.618 2.611 2.611 0 0 1 .573-2.856L35.607.909z"/>
        <linearGradient id="c" x1="50%" x2="50%" y1=".811%" y2="100%">
            <stop offset="0%" stop-color="#6F2A82" stop-opacity="0"/>
            <stop offset="100%" stop-color="#6F2A82"/>
        </linearGradient>
        <linearGradient id="e" x1="44.293%" x2="44.293%" y1="100%" y2="0%">
            <stop offset="0%" stop-color="#6F2A82" stop-opacity="0"/>
            <stop offset="100%" stop-color="#6F2A82"/>
        </linearGradient>
        <linearGradient id="f" x1="50%" x2="50%" y1="100%" y2="0%">
            <stop offset="0%" stop-color="#6F2A82" stop-opacity="0"/>
            <stop offset="100%" stop-color="#6F2A82"/>
        </linearGradient>
    </defs>
    <g fill="none" fill-rule="evenodd">
        <g fill="#FFF">
            <path d="M.535 117.38A1.279 1.279 0 0 1 0 116.339c0-.71.58-1.265 1.292-1.265.38 0 .625.111.803.244 1.293 1.02 2.675 1.597 4.369 1.597s2.764-.798 2.764-1.952v-.044c0-1.11-.624-1.71-3.522-2.375-3.321-.799-5.193-1.774-5.193-4.637v-.044c0-2.663 2.229-4.505 5.327-4.505 1.961 0 3.544.51 4.948 1.443.312.177.602.554.602 1.087 0 .71-.58 1.264-1.293 1.264a1.33 1.33 0 0 1-.713-.199c-1.204-.777-2.363-1.176-3.589-1.176-1.605 0-2.54.82-2.54 1.842v.044c0 1.198.713 1.73 3.722 2.44 3.299.8 4.993 1.976 4.993 4.55v.044c0 2.906-2.297 4.637-5.573 4.637-2.117 0-4.123-.665-5.862-1.952M22.047 106.109h-3.79c-.712 0-1.27-.577-1.27-1.265s.558-1.265 1.27-1.265h10.365c.692 0 1.249.577 1.249 1.265s-.557 1.265-1.249 1.265h-3.811v11.76c0 .754-.624 1.353-1.382 1.353-.758 0-1.382-.599-1.382-1.353v-11.76zM42.757 111.279c1.962 0 3.21-1.021 3.21-2.596v-.045c0-1.664-1.204-2.574-3.232-2.574h-3.99v5.215h4.012zm-6.754-6.324c0-.777.602-1.376 1.382-1.376h5.572c1.962 0 3.5.577 4.503 1.554.825.843 1.293 1.997 1.293 3.35v.044c0 2.486-1.449 3.994-3.544 4.638l2.987 3.75c.267.333.446.62.446 1.042 0 .755-.647 1.265-1.315 1.265-.625 0-1.026-.288-1.338-.71l-3.79-4.815h-3.454v4.172c0 .754-.602 1.353-1.36 1.353-.78 0-1.382-.599-1.382-1.353v-12.914zM55.465 117.735v-12.78c0-.777.602-1.376 1.382-1.376h9.072c.668 0 1.226.555 1.226 1.22a1.22 1.22 0 0 1-1.226 1.221h-7.713v4.038h6.71c.669 0 1.226.555 1.226 1.243 0 .665-.557 1.198-1.226 1.198h-6.71v4.171h7.824c.669 0 1.226.555 1.226 1.22a1.22 1.22 0 0 1-1.226 1.221h-9.183c-.78 0-1.382-.6-1.382-1.376M83.063 112.943l-2.742-6.28-2.742 6.28h5.484zm-10.21 4.393l5.796-12.87c.312-.687.87-1.108 1.65-1.108h.134c.78 0 1.315.42 1.627 1.109l5.796 12.87c.11.199.155.399.155.576 0 .732-.557 1.31-1.293 1.31-.646 0-1.092-.378-1.337-.955l-1.27-2.907h-7.58l-1.314 2.996c-.223.555-.691.865-1.27.865-.714 0-1.271-.554-1.271-1.265 0-.2.067-.399.178-.62zM94.322 104.866c0-.754.602-1.375 1.382-1.375h.29c.601 0 1.002.31 1.27.732l4.725 7.366 4.749-7.389c.29-.465.69-.71 1.248-.71h.29c.78 0 1.382.622 1.382 1.376v13.003c0 .754-.603 1.353-1.383 1.353-.736 0-1.36-.621-1.36-1.353v-9.32l-3.81 5.703c-.29.444-.647.71-1.16.71-.49 0-.847-.266-1.137-.71l-3.789-5.658v9.297c0 .754-.602 1.331-1.36 1.331a1.311 1.311 0 0 1-1.337-1.331v-13.025z"/>
        </g>
        <g transform="translate(29.479 .381)">
            <mask id="d" fill="#fff">
                <use xlink:href="#a"/>
            </mask>
            <use fill="url(#b)" xlink:href="#a"/>
            <path fill="url(#c)" d="M15.109 31.657l-2.944 2.996h7.374l2.953-2.996z" mask="url(#d)"/>
            <path d="M31.896 35.776l-2.943 2.996h7.373l2.953-2.996z" mask="url(#d)"/>
            <path fill="url(#c)" d="M25.52 31.657l-3.028 2.996h7.4l3-2.996z" mask="url(#d)"/>
            <path fill="url(#e)" d="M32.574 42.889h7.384l3.008-2.996h-7.438z" mask="url(#d)"/>
            <path fill="url(#f)" d="M25.064 39.893l-2.972 2.996h7.37l3.029-2.996z" mask="url(#d)"/>
        </g>
    </g>
</svg>
