<svg xmlns="http://www.w3.org/2000/svg" xmlns:xlink="http://www.w3.org/1999/xlink" width="36" height="54" viewBox="0 0 36 54">
    <defs>
        <linearGradient id="b" x1="50%" x2="50%" y1="0%" y2="100%">
            <stop offset="0%" stop-color="#EB2B4F"/>
            <stop offset="100%" stop-color="#B62A8B"/>
        </linearGradient>
        <path id="a" d="M23.301.588c.336-.33.777-.495 1.217-.495.441 0 .882.165 1.219.497a1.675 1.675 0 0 1-.002 2.397L5.957 22.417H7.96L23.364 7.234A1.742 1.742 0 0 1 25.8 7.21c.68.656.69 1.729.024 2.397l-13.038 12.81h1.933l8.57-8.542a1.742 1.742 0 0 1 2.435-.01c.676.66.68 1.733.01 2.397l-6.164 6.156h14.617c.69 0 1.315.406 1.585 1.032.27.625.134 1.35-.346 1.839L8.623 52.629a1.733 1.733 0 0 1-1.24.518c-.43 0-.824-.158-1.158-.475a1.676 1.676 0 0 1-.044-2.396l23.953-24.468h-2.018l-19.5 19.57a1.73 1.73 0 0 1-1.218.496c-.44 0-.881-.165-1.217-.496a1.676 1.676 0 0 1 0-2.398l17.063-17.172h-1.982L8.622 38.306a1.73 1.73 0 0 1-1.22.5c-.44 0-.88-.165-1.216-.493a1.676 1.676 0 0 1-.005-2.398L16.4 25.808H1.794A1.723 1.723 0 0 1 .202 24.76a1.675 1.675 0 0 1 .375-1.848L23.3.588z"/>
        <linearGradient id="c" x1="50%" x2="50%" y1=".811%" y2="100%">
            <stop offset="0%" stop-color="#6F2A82" stop-opacity="0"/>
            <stop offset="100%" stop-color="#6F2A82"/>
        </linearGradient>
        <linearGradient id="e" x1="44.293%" x2="44.293%" y1="100%" y2="0%">
            <stop offset="0%" stop-color="#6F2A82" stop-opacity="0"/>
            <stop offset="100%" stop-color="#6F2A82"/>
        </linearGradient>
        <linearGradient id="f" x1="50%" x2="50%" y1="100%" y2="0%">
            <stop offset="0%" stop-color="#6F2A82" stop-opacity="0"/>
            <stop offset="100%" stop-color="#6F2A82"/>
        </linearGradient>
    </defs>
    <g fill="none" fill-rule="evenodd">
        <mask id="d" fill="#fff">
            <use xlink:href="#a"/>
        </mask>
        <use fill="url(#b)" xlink:href="#a"/>
        <path fill="url(#c)" d="M9.887 20.48l-1.926 1.938h4.825l1.933-1.938z" mask="url(#d)"/>
        <path d="M20.873 23.144l-1.927 1.939h4.825l1.933-1.939z" mask="url(#d)"/>
        <path fill="url(#c)" d="M16.7 20.48l-1.981 1.938h4.842l1.963-1.938z" mask="url(#d)"/>
        <path fill="url(#e)" d="M21.316 27.746h4.832l1.968-1.938H23.25z" mask="url(#d)"/>
        <path fill="url(#f)" d="M16.402 25.808l-1.945 1.938h4.823l1.982-1.938z" mask="url(#d)"/>
    </g>
</svg>
