<svg xmlns="http://www.w3.org/2000/svg" width="120" height="120" viewBox="0 0 120 120">
    <g fill="none" fill-rule="nonzero">
        <path fill="#263238" d="M0 0h120v120H0z"/>
        <path fill="#FFF" d="M28.636 40.133c.1-.99-.277-1.968-1.016-2.634l-7.527-9.068v-1.354h23.372L61.53 66.696l15.882-39.62h22.28v1.355l-6.435 6.17a1.881 1.881 0 0 0-.715 1.807v45.338c-.115.688.16 1.383.715 1.806l6.285 6.17v1.355H67.928v-1.355l6.51-6.32c.64-.64.64-.828.64-1.807V44.95L56.977 90.926H54.53L33.454 44.95v30.815A4.25 4.25 0 0 0 34.62 79.3l8.468 10.272v1.354H19.077v-1.354L27.545 79.3a4.1 4.1 0 0 0 1.091-3.536V40.133z"/>
    </g>
</svg>
